<?xml version="1.0" encoding="utf-8"?>
<svg width="3661.2617px" height="840px" viewBox="0 0 3661.2617 840" version="1.1" xmlns:xlink="http://www.w3.org/1999/xlink" xmlns="http://www.w3.org/2000/svg">
  <g id="complet-logo">
    <g id="Logo">
      <path d="M0 440L801 0L1608 440L801 840L0 440Z" id="Vecteur" fill="#27364A" fill-rule="evenodd" stroke="none" />
      <path d="M119.645 437.524L801.448 63L1488.36 437.524L801.448 778L119.645 437.524Z" id="Vecteur-Copy" fill="#F8FBFF" fill-rule="evenodd" stroke="none" />
      <path d="M210.57 434.762L801.785 110L1397.43 434.762L801.785 730L210.57 434.762Z" id="Vecteur-Copy-2" fill="#27364A" fill-rule="evenodd" stroke="none" />
      <path d="M308.602 432.518L802.182 161.388L1299.46 432.518L802.182 679L308.602 432.518Z" id="Vecteur-Copy-3" fill="#F8632D" fill-rule="evenodd" stroke="none" />
      <g id="Groupes" transform="translate(557 142.40002)">
        <g id="M" fill="#27364A">
          <path d="M317.09 148.185L317.09 407.925L253.82 407.925L253.82 252.155L195.73 407.925L144.67 407.925L86.21 251.785L86.21 407.925L22.94 407.925L22.94 148.185L97.68 148.185L170.57 328.005L242.72 148.185L317.09 148.185Z" />
        </g>
        <g id="H" fill="#27364A" transform="translate(224 0.4000244)">
          <path d="M247.9 148.185L247.9 407.925L184.63 407.925L184.63 300.995L86.21 300.995L86.21 407.925L22.94 407.925L22.94 148.185L86.21 148.185L86.21 249.935L184.63 249.935L184.63 148.185L247.9 148.185Z" />
        </g>
      </g>
    </g>
    <path d="M1490.4 388L3448.3 388L3448.3 484L1490.4 484L1490.4 388Z" id="Rectangle-2" fill="#27364A" fill-rule="evenodd" stroke="none" />
    <path d="M3386.59 410.46L3599.55 231.765L3661.26 305.305L3448.3 484L3386.59 410.46Z" id="Rectangle-2-Copy" fill="#27364A" fill-rule="evenodd" stroke="none" />
    <g id="MAINGER-S-HYDRAULIC" transform="translate(1535.1953 195)">
      <g id="MAINGER-" fill="#27364A">
        <path d="M483.375 88.275Q487.8 90.525 490.35 94.725L522 94.725Q518.85 78.075 505.8 68.475Q492.75 58.875 472.8 58.875Q456.9 58.875 444.75 65.7Q432.6 72.525 425.925 84.75Q419.25 96.975 419.25 112.575Q419.25 128.325 425.925 140.55Q432.6 152.775 444.825 159.6Q457.05 166.425 472.95 166.425Q486 166.425 496.2 161.7Q506.4 156.975 513.075 149.625Q519.75 142.275 523.2 133.875L523.2 105.375L468.3 105.375L468.3 126.525L497.85 126.525Q491.25 140.475 475.8 140.475Q462.75 140.475 455.925 133.35Q449.1 126.225 449.1 112.575Q449.1 100.425 455.475 93.225Q461.85 86.025 472.95 86.025Q478.95 86.025 483.375 88.275ZM131.85 59.925L131.85 165.675L102.45 165.675L102.45 107.325L82.5 165.675L57.9 165.675L37.8 106.875L37.8 165.675L8.4 165.675L8.4 59.925L43.95 59.925L70.5 128.625L96.45 59.925L131.85 59.925ZM178.05 148.425L172.35 165.675L141.45 165.675L180 59.925L213.9 59.925L252.3 165.675L221.25 165.675L215.55 148.425L178.05 148.425ZM291.3 165.675L291.3 59.925L261.9 59.925L261.9 165.675L291.3 165.675ZM406.05 165.675L376.65 165.675L337.5 106.575L337.5 165.675L308.1 165.675L308.1 59.925L337.5 59.925L376.65 119.775L376.65 59.925L406.05 59.925L406.05 165.675ZM565.8 83.475L565.8 100.725L599.55 100.725L599.55 123.075L565.8 123.075L565.8 142.125L604.05 142.125L604.05 165.675L536.4 165.675L536.4 59.925L604.05 59.925L604.05 83.475L565.8 83.475ZM651.15 126.675L672.15 165.675L705 165.675L681.15 124.425Q692.55 120.975 698.475 112.8Q704.4 104.625 704.4 93.825Q704.4 84.225 699.9 76.5Q695.4 68.775 686.55 64.35Q677.7 59.925 664.95 59.925L618.6 59.925L618.6 165.675L648 165.675L648 126.675L651.15 126.675ZM662.55 106.575L648 106.575L648 84.525L662.55 84.525Q668.4 84.525 671.475 87.45Q674.55 90.375 674.55 95.475Q674.55 100.875 671.55 103.725Q668.55 106.575 662.55 106.575ZM208.2 125.925L196.8 91.725L185.55 125.925L208.2 125.925Z" />
      </g>
      <g id="S-HYDRAULIC" fill="#27364A">
        <path d="M786.3 166.725Q767.85 166.725 756 157.95Q744.15 149.175 743.25 132.825L774.6 132.825Q775.05 138.375 777.9 140.925Q780.75 143.475 785.25 143.475Q789.3 143.475 791.925 141.45Q794.55 139.425 794.55 135.825Q794.55 131.175 790.2 128.625Q785.85 126.075 776.1 122.925Q765.75 119.475 759.375 116.25Q753 113.025 748.275 106.8Q743.55 100.575 743.55 90.525Q743.55 80.325 748.65 73.05Q753.75 65.775 762.75 62.025Q771.75 58.275 783.15 58.275Q801.6 58.275 812.625 66.9Q823.65 75.525 824.4 91.125L792.45 91.125Q792.3 86.325 789.525 83.925Q786.75 81.525 782.4 81.525Q779.1 81.525 777 83.475Q774.9 85.425 774.9 89.025Q774.9 92.025 777.225 94.2Q779.55 96.375 783 97.95Q786.45 99.525 793.2 101.925Q803.25 105.375 809.775 108.75Q816.3 112.125 821.025 118.2Q825.75 124.275 825.75 133.575Q825.75 143.025 821.025 150.525Q816.3 158.025 807.375 162.375Q798.45 166.725 786.3 166.725ZM1694.93 84.75Q1688.4 96.975 1688.4 112.575Q1688.4 128.325 1694.93 140.55Q1701.45 152.775 1713.45 159.6Q1725.45 166.425 1741.05 166.425Q1760.85 166.425 1774.35 155.85Q1787.85 145.275 1791.75 127.125L1760.1 127.125Q1757.25 133.125 1752.23 136.275Q1747.2 139.425 1740.6 139.425Q1730.4 139.425 1724.33 132.15Q1718.25 124.875 1718.25 112.575Q1718.25 100.425 1724.33 93.15Q1730.4 85.875 1740.6 85.875Q1747.2 85.875 1752.23 89.025Q1757.25 92.175 1760.1 98.175L1791.75 98.175Q1787.85 80.025 1774.35 69.45Q1760.85 58.875 1741.05 58.875Q1725.45 58.875 1713.45 65.7Q1701.45 72.525 1694.93 84.75ZM1020.75 165.675L1020.75 59.925L991.35 59.925L991.35 99.675L955.5 99.675L955.5 59.925L926.1 59.925L926.1 165.675L955.5 165.675L955.5 123.225L991.35 123.225L991.35 165.675L1020.75 165.675ZM1133.7 59.925L1096.5 132.075L1096.5 165.675L1066.95 165.675L1066.95 132.075L1029.75 59.925L1063.35 59.925L1081.95 100.725L1100.55 59.925L1133.7 59.925ZM1213.73 66.6Q1201.2 59.925 1184.55 59.925L1142.7 59.925L1142.7 165.675L1184.55 165.675Q1201.05 165.675 1213.58 158.85Q1226.1 152.025 1232.93 140.025Q1239.75 128.025 1239.75 112.725Q1239.75 97.275 1233 85.275Q1226.25 73.275 1213.73 66.6ZM1306.5 165.675L1285.5 126.675L1282.35 126.675L1282.35 165.675L1252.95 165.675L1252.95 59.925L1299.3 59.925Q1312.05 59.925 1320.9 64.35Q1329.75 68.775 1334.25 76.5Q1338.75 84.225 1338.75 93.825Q1338.75 104.625 1332.83 112.8Q1326.9 120.975 1315.5 124.425L1339.35 165.675L1306.5 165.675ZM1375.8 165.675L1381.5 148.425L1419 148.425L1424.7 165.675L1455.75 165.675L1417.35 59.925L1383.45 59.925L1344.9 165.675L1375.8 165.675ZM1494.15 59.925L1494.15 121.275Q1494.15 129.825 1498.13 134.475Q1502.1 139.125 1510.2 139.125Q1518.3 139.125 1522.43 134.4Q1526.55 129.675 1526.55 121.275L1526.55 59.925L1555.95 59.925L1555.95 121.275Q1555.95 135.825 1549.8 146.1Q1543.65 156.375 1533.08 161.55Q1522.5 166.725 1509.6 166.725Q1496.7 166.725 1486.58 161.55Q1476.45 156.375 1470.68 146.175Q1464.9 135.975 1464.9 121.275L1464.9 59.925L1494.15 59.925ZM1634.4 143.175L1601.55 143.175L1601.55 59.925L1572.15 59.925L1572.15 165.675L1634.4 165.675L1634.4 143.175ZM1675.2 165.675L1645.8 165.675L1645.8 59.925L1675.2 59.925L1675.2 165.675ZM1282.35 106.575L1296.9 106.575Q1302.9 106.575 1305.9 103.725Q1308.9 100.875 1308.9 95.475Q1308.9 90.375 1305.83 87.45Q1302.75 84.525 1296.9 84.525L1282.35 84.525L1282.35 106.575ZM1202.55 132.675Q1195.2 139.725 1182.3 139.725L1172.1 139.725L1172.1 85.425L1182.3 85.425Q1195.2 85.425 1202.55 92.55Q1209.9 99.675 1209.9 112.725Q1209.9 125.625 1202.55 132.675ZM1400.25 91.725L1411.65 125.925L1389 125.925L1400.25 91.725ZM904.35 101.475L904.35 125.925L836.4 125.925L836.4 101.475L904.35 101.475Z" />
      </g>
    </g>
    <g id="&amp;-Services" fill="#F8632D" transform="translate(2207 388)">
      <path d="M216.64 30.752Q214.272 30.752 212.704 29.248Q211.136 27.744 211.136 25.504Q211.136 23.264 212.704 21.76Q214.272 20.256 216.64 20.256Q219.008 20.256 220.576 21.76Q222.144 23.264 222.144 25.504Q222.144 27.744 220.576 29.248Q219.008 30.752 216.64 30.752ZM38.784 70.432L33.92 65.632Q27.712 71.2 18.752 71.2Q13.824 71.2 10.08 69.504Q6.336 67.808 4.288 64.704Q2.24 61.6 2.24 57.504Q2.24 53.088 4.736 49.568Q7.232 46.048 12.096 43.872Q10.368 41.76 9.6 39.808Q8.832 37.856 8.832 35.616Q8.832 32.544 10.432 30.08Q12.032 27.616 15.008 26.208Q17.984 24.8 21.952 24.8Q25.984 24.8 28.864 26.336Q31.744 27.872 33.152 30.432Q34.56 32.992 34.368 36.128L25.664 36.128Q25.728 34.016 24.64 32.896Q23.552 31.776 21.696 31.776Q19.904 31.776 18.72 32.832Q17.536 33.888 17.536 35.552Q17.536 37.152 18.496 38.72Q19.456 40.288 21.632 42.592L32.896 53.728Q33.024 53.6 33.088 53.472L33.216 53.216L36.864 47.136L46.208 47.136L41.728 55.008Q40.448 57.504 38.976 59.744L49.792 70.432L38.784 70.432ZM84.864 70.88Q80.192 70.88 76.448 69.28Q72.704 67.68 70.528 64.672Q68.352 61.664 68.288 57.568L77.888 57.568Q78.08 60.32 79.84 61.92Q81.6 63.52 84.672 63.52Q87.808 63.52 89.6 62.016Q91.392 60.512 91.392 58.08Q91.392 56.096 90.176 54.816Q88.96 53.536 87.136 52.8Q85.312 52.064 82.112 51.168Q77.76 49.888 75.04 48.64Q72.32 47.392 70.368 44.864Q68.416 42.336 68.416 38.112Q68.416 34.144 70.4 31.2Q72.384 28.256 75.968 26.688Q79.552 25.12 84.16 25.12Q91.072 25.12 95.392 28.48Q99.712 31.84 100.16 37.856L90.304 37.856Q90.176 35.552 88.352 34.048Q86.528 32.544 83.52 32.544Q80.896 32.544 79.328 33.888Q77.76 35.232 77.76 37.792Q77.76 39.584 78.944 40.768Q80.128 41.952 81.888 42.688Q83.648 43.424 86.848 44.384Q91.2 45.664 93.952 46.944Q96.704 48.224 98.688 50.784Q100.672 53.344 100.672 57.504Q100.672 61.088 98.816 64.16Q96.96 67.232 93.376 69.056Q89.792 70.88 84.864 70.88ZM141.12 55.392Q141.376 53.856 141.376 51.936Q141.376 46.752 139.168 42.752Q136.96 38.752 132.96 36.576Q128.96 34.4 123.904 34.4Q118.656 34.4 114.624 36.64Q110.592 38.88 108.352 43.04Q106.112 47.2 106.112 52.704Q106.112 58.144 108.384 62.304Q110.656 66.464 114.72 68.736Q118.784 71.008 123.904 71.008Q130.24 71.008 134.592 67.712Q138.944 64.416 140.48 59.296L130.816 59.296Q128.704 63.584 123.712 63.584Q120.256 63.584 117.888 61.408Q115.52 59.232 115.2 55.392L141.12 55.392ZM229.824 43.072Q227.584 47.2 227.584 52.704Q227.584 58.208 229.824 62.336Q232.064 66.464 236.032 68.736Q240 71.008 245.12 71.008Q251.648 71.008 256 67.616Q260.352 64.224 261.824 58.464L252.16 58.464Q250.496 63.328 245.056 63.328Q241.216 63.328 238.976 60.544Q236.736 57.76 236.736 52.704Q236.736 47.584 238.976 44.8Q241.216 42.016 245.056 42.016Q247.744 42.016 249.568 43.328Q251.392 44.64 252.16 46.944L261.824 46.944Q260.352 40.992 256.032 37.696Q251.712 34.4 245.12 34.4Q240 34.4 236.032 36.672Q232.064 38.944 229.824 43.072ZM301.376 51.936Q301.376 53.856 301.12 55.392L275.2 55.392Q275.52 59.232 277.888 61.408Q280.256 63.584 283.712 63.584Q288.704 63.584 290.816 59.296L300.48 59.296Q298.944 64.416 294.592 67.712Q290.24 71.008 283.904 71.008Q278.784 71.008 274.72 68.736Q270.656 66.464 268.384 62.304Q266.112 58.144 266.112 52.704Q266.112 47.2 268.352 43.04Q270.592 38.88 274.624 36.64Q278.656 34.4 283.904 34.4Q288.96 34.4 292.96 36.576Q296.96 38.752 299.168 42.752Q301.376 46.752 301.376 51.936ZM313.664 69.44Q317.12 71.008 321.472 71.008Q325.696 71.008 328.864 69.632Q332.032 68.256 333.728 65.824Q335.424 63.392 335.424 60.32Q335.36 56.8 333.536 54.656Q331.712 52.512 329.216 51.488Q326.72 50.464 322.88 49.504Q319.104 48.544 317.312 47.616Q315.52 46.688 315.52 44.896Q315.52 43.296 316.832 42.4Q318.144 41.504 320.576 41.504Q323.2 41.504 324.768 42.752Q326.336 44 326.528 46.112L335.104 46.112Q334.72 40.736 330.944 37.568Q327.168 34.4 320.832 34.4Q316.544 34.4 313.376 35.808Q310.208 37.216 308.512 39.648Q306.816 42.08 306.816 45.024Q306.816 48.608 308.64 50.72Q310.464 52.832 312.992 53.856Q315.52 54.88 319.488 55.84Q323.328 56.864 325.088 57.728Q326.848 58.592 326.848 60.32Q326.848 61.92 325.408 62.944Q323.968 63.968 321.408 63.968Q318.784 63.968 317.024 62.624Q315.264 61.28 315.008 59.232L305.984 59.232Q306.176 62.496 308.192 65.184Q310.208 67.872 313.664 69.44ZM156.864 40.48Q158.592 37.664 161.376 36.064Q164.16 34.464 167.744 34.464L167.744 43.872L165.376 43.872Q161.152 43.872 159.008 45.856Q156.864 47.84 156.864 52.768L156.864 70.432L147.904 70.432L147.904 34.976L156.864 34.976L156.864 40.48ZM197.504 34.976L188.544 62.176L179.584 34.976L169.984 34.976L183.04 70.432L193.92 70.432L207.04 34.976L197.504 34.976ZM221.056 70.432L212.096 70.432L212.096 34.976L221.056 34.976L221.056 70.432ZM129.6 43.84Q132.032 45.92 132.096 49.376L115.264 49.376Q115.776 45.792 118.048 43.776Q120.32 41.76 123.648 41.76Q127.168 41.76 129.6 43.84ZM292.096 49.376Q292.032 45.92 289.6 43.84Q287.168 41.76 283.648 41.76Q280.32 41.76 278.048 43.776Q275.776 45.792 275.264 49.376L292.096 49.376ZM19.008 63.776Q24.256 63.776 28.288 60.064L17.28 49.184Q11.072 51.936 11.072 56.992Q11.072 59.872 13.248 61.824Q15.424 63.776 19.008 63.776Z" />
    </g>
    <g id="," fill="#27364A" transform="translate(2239.5938 133)">
      <path d="M10.2539 119.105L30.835 119.105L30.835 133.827Q30.835 142.763 29.2969 147.926Q27.7588 153.09 23.4741 157.191Q19.1895 161.293 12.5977 163.637L8.56934 155.141Q14.7949 153.09 17.4316 149.501Q20.0684 145.912 20.2148 139.687L10.2539 139.687L10.2539 119.105Z" />
    </g>
  </g>
</svg>