<?xml version="1.0" encoding="utf-8"?>
<svg width="350px" height="489.94385px" viewBox="0 0 350 489.94385" version="1.1" xmlns:xlink="http://www.w3.org/1999/xlink" xmlns="http://www.w3.org/2000/svg">
  <path d="M0 437.444L0 472.444C0 477.084 1.84375 481.534 5.125 484.819C8.40625 488.1 12.8594 489.944 17.5 489.944L70 489.944C74.6406 489.944 79.0938 488.1 82.375 484.819C85.6563 481.534 87.5 477.084 87.5 472.444L87.5 437.444C87.5 432.803 85.6563 428.35 82.375 425.069C79.0938 421.788 74.6406 419.944 70 419.944L17.5 419.944C12.8594 419.944 8.40625 421.788 5.125 425.069C1.84375 428.35 0 432.803 0 437.444L0 437.444ZM17.5 332.444L17.5 157.444C17.5195 101.186 47.543 49.2139 96.266 21.0938C144.989 -7.03125 205.016 -7.03125 253.736 21.0938C302.459 49.2148 332.482 101.188 332.502 157.444L332.502 332.444L280.002 332.444L280.002 157.444C279.99 119.94 259.975 85.2876 227.49 66.542C195.01 47.792 154.994 47.792 122.51 66.542C90.026 85.2876 70.01 119.94 69.998 157.444L69.998 332.444L17.5 332.444ZM323.75 349.944L323.75 402.444L332.5 402.444L332.5 349.944L323.75 349.944ZM297.5 402.444L315 402.444L315 349.944L297.5 349.944L297.5 402.444ZM280 402.444L288.75 402.444L288.75 349.944L280 349.944L280 402.444ZM332.5 419.944L280 419.944C275.359 419.944 270.906 421.788 267.625 425.069C264.344 428.35 262.5 432.803 262.5 437.444L262.5 472.444C262.5 477.084 264.344 481.534 267.625 484.819C270.906 488.1 275.359 489.944 280 489.944L332.5 489.944C337.141 489.944 341.594 488.1 344.875 484.819C348.156 481.534 350 477.084 350 472.444L350 437.444C350 432.803 348.156 428.35 344.875 425.069C341.594 421.788 337.141 419.944 332.5 419.944L332.5 419.944ZM61.25 349.944L70 349.944L70 411.194L61.25 411.194L61.25 349.944ZM35 411.194L35 349.944L52.5 349.944L52.5 411.194L35 411.194ZM26.25 349.944L26.25 411.194L17.5 411.194L17.5 349.944L26.25 349.944Z" id="flexible" fill="#FF8913" stroke="none" />
</svg>