<?xml version="1.0" encoding="utf-8"?>
<svg width="484.326px" height="484.37903px" viewBox="0 0 484.326 484.37903" version="1.1" xmlns:xlink="http://www.w3.org/1999/xlink" xmlns="http://www.w3.org/2000/svg">
  <defs>
    <path d="M0 0L484.326 0L484.326 484.379L0 484.379L0 0Z" id="path_1" />
    <clipPath id="mask_1">
      <use xlink:href="#path_1" />
    </clipPath>
  </defs>
  <g id="pipe">
    <path d="M0 0L484.326 0L484.326 484.379L0 484.379L0 0Z" id="Arrière-plan" fill="#FFFFFF" fill-opacity="0" fill-rule="evenodd" stroke="none" />
    <path d="M172.688 419.219C232.016 419.219 280.298 370.938 280.298 311.679C280.298 252.351 232.017 204.069 172.688 204.069C113.359 204.069 65.148 252.35 65.148 311.679C65.148 370.933 113.351 419.219 172.688 419.219L172.688 419.219L172.688 419.219ZM172.688 215.349C225.813 215.349 268.946 258.56 268.946 311.607C268.946 364.654 225.735 407.791 172.688 407.791C119.641 407.791 76.504 364.654 76.504 311.607C76.504 258.56 119.637 215.349 172.688 215.349L172.688 215.349L172.688 215.349ZM172.688 386.679C214.083 386.679 247.758 353.003 247.758 311.683C247.758 270.288 214.082 236.613 172.688 236.613C131.368 236.613 97.692 270.289 97.692 311.683C97.692 353.003 131.368 386.679 172.688 386.679L172.688 386.679L172.688 386.679ZM172.688 247.969C207.801 247.969 236.407 276.574 236.407 311.688C236.407 346.802 207.802 375.333 172.688 375.333C137.574 375.333 109.043 346.802 109.043 311.688C109.043 276.5 137.574 247.969 172.688 247.969L172.688 247.969L172.688 247.969ZM478.648 440.419L287.638 440.419C324.115 407.88 345.454 360.884 345.454 311.619C345.454 216.342 267.888 138.849 172.614 138.849C123.426 138.849 76.43 160.267 43.894 196.665L43.894 111.528C43.894 101.161 52.2924 92.7622 62.66 92.7622L208.64 92.7622L208.64 107.063C208.64 114.708 214.847 120.911 222.488 120.911L239.816 120.911C247.156 120.911 253.136 115.083 253.589 107.817L319.73 90.1099C325.785 88.5205 329.945 82.9966 329.945 76.79L329.945 64.7593C329.945 58.478 325.707 53.0293 319.73 51.439L253.519 33.7319C253.14 26.4663 247.164 20.6382 239.746 20.6382L222.418 20.6382C214.773 20.6382 208.57 26.8452 208.57 34.4858L208.57 48.7871L62.66 48.7949C28.078 48.7949 0 76.9429 0 111.529L0 311.689C0 406.888 77.492 484.379 172.77 484.379L478.65 484.379C481.752 484.379 484.326 481.805 484.326 478.703L484.326 446.086C484.326 442.98 481.752 440.41 478.65 440.41L478.648 440.419L478.648 440.419ZM172.688 182.819C243.747 182.819 301.568 240.635 301.568 311.699C301.568 382.683 243.752 440.499 172.688 440.499C101.704 440.499 43.888 382.757 43.888 311.699C43.888 240.641 101.704 182.819 172.688 182.819L172.688 182.819L172.688 182.819ZM318.588 64.769L318.588 76.7998C318.588 77.9365 317.83 78.9175 316.772 79.2222L253.584 96.0972L253.584 45.5459L316.697 62.4209C317.829 62.6514 318.587 63.6357 318.587 64.7686L318.588 64.769L318.588 64.769ZM219.983 34.499C219.983 33.1357 221.12 32.0029 222.479 32.0029L239.807 32.0029C241.17 32.0029 242.303 33.1396 242.303 34.499L242.303 107.073C242.303 108.437 241.167 109.569 239.807 109.569L222.479 109.569C221.116 109.569 219.983 108.433 219.983 107.073L219.983 34.499L219.983 34.499ZM11.343 311.619L11.343 111.529C11.343 83.228 34.347 60.2202 62.652 60.2202L208.632 60.2202L208.632 81.4082L62.652 81.4082C46.078 81.4082 32.535 94.877 32.535 111.525L32.535 311.685C32.535 388.951 95.422 451.835 172.685 451.835C250.025 451.835 312.915 388.948 312.915 311.685C312.915 234.345 250.028 171.455 172.685 171.455C115.021 171.455 65.375 206.568 43.885 256.439L43.885 214.439C74.233 174.181 122.209 150.189 172.605 150.189C261.675 150.189 334.095 222.611 334.095 311.609C334.095 362.691 309.501 411.273 268.333 441.539L268.333 441.613C240.485 462.195 207.415 473.019 172.755 473.019L172.681 473.019C83.6848 473.023 11.3408 400.601 11.3408 311.609L11.343 311.619L11.343 311.619ZM472.963 473.039L234.123 473.039C248.049 467.742 261.291 460.703 273.549 451.773L472.959 451.773L472.963 473.039L472.963 473.039ZM385.258 122.649L407.051 128.856C407.582 129.008 408.11 129.083 408.641 129.083C411.137 129.083 413.406 127.493 414.09 124.997C414.922 121.969 413.184 118.868 410.156 117.958L388.363 111.75C385.336 110.918 382.235 112.657 381.324 115.684C380.492 118.637 382.231 121.817 385.258 122.649L385.258 122.649L385.258 122.649ZM428.928 135.059L450.799 141.266C451.33 141.418 451.858 141.493 452.389 141.493C454.885 141.493 457.154 139.903 457.838 137.407C458.67 134.379 456.932 131.278 453.904 130.368L432.033 124.161C429.006 123.329 425.905 125.067 424.994 128.094C424.162 131.122 425.904 134.227 428.928 135.059L428.928 135.059L428.928 135.059ZM341.598 110.239L363.469 116.446C364 116.599 364.528 116.673 365.059 116.673C367.555 116.673 369.824 115.083 370.508 112.587C371.34 109.56 369.602 106.458 366.574 105.548L344.703 99.3408C341.676 98.5088 338.575 100.247 337.664 103.274C336.754 106.302 338.571 109.403 341.598 110.239L341.598 110.239L341.598 110.239ZM438.918 70.8091C438.918 67.7075 436.344 65.1333 433.242 65.1333L410.539 65.1333C407.438 65.1333 404.863 67.7075 404.863 70.8091C404.863 73.9106 407.438 76.4849 410.539 76.4849L433.242 76.4849C436.344 76.4849 438.918 73.9146 438.918 70.8091L438.918 70.8091L438.918 70.8091ZM450.268 70.8091C450.268 73.9106 452.842 76.4849 455.944 76.4849L478.647 76.4849C481.748 76.4849 484.323 73.9106 484.323 70.8091C484.323 67.7075 481.748 65.1333 478.647 65.1333L455.944 65.1333C452.838 65.1333 450.268 67.6333 450.268 70.8091L450.268 70.8091L450.268 70.8091ZM393.508 70.8091C393.508 67.7075 390.934 65.1333 387.832 65.1333L365.129 65.1333C362.028 65.1333 359.453 67.7075 359.453 70.8091C359.453 73.9106 362.028 76.4849 365.129 76.4849L387.832 76.4849C390.934 76.4849 393.508 73.9146 393.508 70.8091L393.508 70.8091L393.508 70.8091ZM386.848 30.0239C387.379 30.0239 387.907 29.9497 388.438 29.7974L410.231 23.5903C413.258 22.7583 414.996 19.5786 414.164 16.5513C413.332 13.5239 410.231 11.7856 407.125 12.6177L385.332 18.8247C382.305 19.6567 380.567 22.8364 381.399 25.8638C382.082 28.4341 384.352 30.0239 386.848 30.0239L386.848 30.0239L386.848 30.0239ZM343.108 42.4341C343.639 42.4341 344.167 42.3599 344.698 42.2075L366.569 36.0005C369.596 35.1685 371.334 31.9888 370.502 28.9614C369.67 25.9341 366.491 24.1958 363.463 25.0278L341.592 31.2349C338.565 32.0669 336.827 35.2466 337.659 38.2739C338.413 40.8481 340.686 42.4341 343.108 42.4341L343.108 42.4341L343.108 42.4341ZM430.518 17.6143C431.049 17.6143 431.577 17.54 432.108 17.3877L453.979 11.1807C457.006 10.3486 458.744 7.16895 457.912 4.1416C457.08 1.11377 453.979 -0.624023 450.873 0.208008L429.002 6.41455C425.975 7.24658 424.237 10.4263 425.069 13.4541C425.752 16.0244 428.022 17.6143 430.518 17.6143L430.518 17.6143L430.518 17.6143Z" id="pipe" fill="#FB5901" fill-rule="evenodd" stroke="none" />
  </g>
</svg>