<?xml version="1.0" encoding="utf-8"?>
<svg width="512.6012px" height="341.82568px" viewBox="0 0 512.6012 341.82568" version="1.1" xmlns:xlink="http://www.w3.org/1999/xlink" xmlns="http://www.w3.org/2000/svg">
  <path d="M454.856 115.535C453.555 109.21 447.856 104.625 441.215 104.625L383.914 104.922C380.16 104.938 376.652 106.418 374.004 109.09C371.39 111.738 369.965 115.234 370 118.93L370.297 152.195C370.363 158.125 374.004 163.25 379.582 165.243L439.414 186.665C441.547 187.43 443.765 187.825 445.988 187.825C450.769 187.825 455.394 186 459.015 182.696C464.21 177.958 466.347 171.122 464.855 163.93L454.856 115.535ZM447.696 170.273C447.156 170.765 446.582 171.011 445.989 171.011C445.703 171.011 445.391 170.957 445.071 170.843L387.091 150.077L386.829 121.702L438.927 121.433L448.407 167.312C448.81 169.261 447.997 169.991 447.697 170.272L447.696 170.273ZM370.386 183.325L385.074 183.325L385.074 200.126L370.386 200.126L370.386 183.325ZM496.866 214.815L496.866 172.249L472.323 98.0029C469.006 87.9639 459.835 81.394 448.936 81.269L366.069 80.3042C356.534 80.3042 347.549 84.1401 340.792 91.1011C334.112 97.9839 330.421 107.066 330.433 116.671L330.487 212.718L325.218 212.718L325.214 184.8L314.015 184.8L314.015 0L128.825 0L95.61 33.2148L95.61 50.395L78.809 50.395L78.809 57.9028L78.5981 57.9028L78.5981 78.3989L5.61407 78.4028L5.61407 95.2036L11.618 95.2036L11.618 168.005L6.01245 168.005L6.01245 184.806L33.7545 184.806L33.7545 168.005L28.4186 168.005L28.4186 95.2075L174.019 95.2075L174.019 167.595L168.413 167.595L168.413 184.396L196.983 184.396L196.983 167.595L190.819 167.595L190.815 95.2075L196.409 95.2075L196.409 78.4067L134.554 78.4067L134.554 57.9106L134.507 57.9106L134.507 50.4028L112.409 50.4028L112.409 44.8013L274.809 44.8013L274.809 184.801L263.61 184.801L263.61 212.711L128.79 212.711C124.317 211.551 119.649 210.875 114.825 210.875C109.997 210.875 105.333 211.551 100.86 212.711L0 212.711L0 248.18L60.129 255.247C59.3439 258.966 58.9181 262.829 58.9181 266.778C58.9181 297.602 83.9961 322.676 114.816 322.676C145.64 322.676 170.714 297.594 170.714 266.778C170.714 265.516 170.609 264.297 170.523 263.059L330.493 263.102L353.743 263.114C353.665 264.329 353.559 265.543 353.559 266.778C353.559 297.602 378.641 322.676 409.457 322.676C440.289 322.676 465.355 297.594 465.355 266.778C465.355 265.551 465.254 264.348 465.183 263.137L512.597 263.149L512.601 214.817L496.866 214.815ZM95.4058 78.4048L95.4058 67.2017L117.754 67.2017L117.754 78.4087L95.4058 78.4048ZM291.616 44.7998L291.616 28.0029L124.586 28.0029L135.781 16.8081L297.221 16.8081L297.221 184.808L291.619 184.808L291.616 44.7998ZM280.417 201.6L308.417 201.6L308.417 212.709L280.417 212.709L280.417 201.6ZM16.7968 233.245L16.7968 229.514L73.2658 229.514C70.6408 232.444 68.3049 235.627 66.34 239.061L16.7968 233.245ZM114.82 305.886C93.2608 305.886 75.7218 288.351 75.7218 266.788C75.7218 245.229 93.2608 227.69 114.82 227.69C136.379 227.69 153.918 245.233 153.918 266.788C153.918 288.35 136.379 305.886 114.82 305.886L114.82 305.886ZM166.781 246.308C164.324 240.085 160.765 234.417 156.371 229.519L263.611 229.519L263.611 229.609L325.213 229.609L325.213 229.519L330.482 229.519L330.494 246.308L166.781 246.308ZM409.481 305.886C387.922 305.886 370.383 288.351 370.383 266.788C370.383 245.229 387.926 227.69 409.481 227.69C431.051 227.69 448.579 245.233 448.579 266.788C448.579 288.35 431.048 305.886 409.481 305.886L409.481 305.886ZM461.465 246.339C453.273 225.612 433.094 210.878 409.481 210.878C385.887 210.878 365.711 225.601 357.52 246.304L347.309 246.308L347.309 212.718L347.274 212.718L347.231 116.659C347.219 111.452 349.219 106.53 352.84 102.8C356.406 99.1279 361.11 97.1006 366.27 97.1006L366.282 97.1006L448.743 98.0654C452.407 98.1084 455.329 100.097 456.376 103.272L480.064 174.953L480.064 222.69L465.537 222.69L465.537 239.491L495.81 239.491L495.81 246.351L461.465 246.339ZM409.476 238.885C394.097 238.885 381.589 251.408 381.589 266.783C381.589 282.174 394.101 294.681 409.476 294.681C424.867 294.681 437.374 282.169 437.374 266.783C437.374 251.404 424.862 238.885 409.476 238.885L409.476 238.885ZM409.476 277.889C403.362 277.889 398.386 272.912 398.386 266.791C398.386 260.678 403.362 255.693 409.476 255.693C415.601 255.693 420.574 260.681 420.574 266.791C420.574 272.908 415.597 277.889 409.476 277.889L409.476 277.889ZM114.826 238.885C99.4428 238.885 86.9278 251.408 86.9278 266.783C86.9278 282.174 99.4438 294.681 114.826 294.681C130.208 294.681 142.724 282.169 142.724 266.783C142.724 251.404 130.208 238.885 114.826 238.885L114.826 238.885ZM114.826 277.889C108.705 277.889 103.728 272.912 103.728 266.791C103.728 260.678 108.704 255.693 114.826 255.693C120.947 255.693 125.924 260.681 125.924 266.791C125.924 272.908 120.947 277.889 114.826 277.889L114.826 277.889ZM55.5158 325.025L504.416 325.025L504.416 341.826L55.5158 341.826L55.5158 325.025ZM0.407776 325.025L40.1848 325.025L40.1848 341.826L0.407776 341.826L0.407776 325.025Z" id="engine" fill="#FF8913" stroke="none" />
</svg>