<svg xmlns="http://www.w3.org/2000/svg" viewBox="0 0 64 64" id="hourglass"><path d="M32.01 33.88H32c-7.95 0-15.28-4.68-18.67-11.93a20.328 20.328 0 0 1-1.93-8.68V1.88C11.4.84 12.24 0 13.28 0h37.45c1.04 0 1.88.84 1.88 1.88v11.39c0 3.02-.65 5.94-1.93 8.68-3.39 7.25-10.72 11.93-18.67 11.93zM15.16 3.76v9.51c0 2.47.53 4.85 1.58 7.08 2.77 5.93 8.76 9.76 15.26 9.76h.01c6.5 0 12.49-3.83 15.26-9.76 1.05-2.23 1.58-4.62 1.58-7.09v-9.5H15.16z"></path><path d="M32.01 33.88a1.88 1.88 0 1 1-.01-3.76c1.04 0 1.89.84 1.89 1.88a1.884 1.884 0 0 1-1.88 1.88z"></path><path d="M50.73 64H13.27c-1.04 0-1.88-.84-1.88-1.88V50.73c0-11.36 9.25-20.61 20.61-20.61s20.61 9.25 20.61 20.61v11.39c0 1.04-.84 1.88-1.88 1.88zm-35.57-3.76h33.69v-9.51c0-9.29-7.56-16.84-16.84-16.84s-16.84 7.56-16.84 16.84v9.51zm35.2-43.73c-2.53 0-3.87-.34-5.05-.64-1.11-.28-2.07-.52-4.13-.52s-3.02.24-4.13.52c-1.18.3-2.52.64-5.05.64s-3.87-.34-5.05-.64c-1.11-.28-2.07-.52-4.13-.52s-3.02.24-4.13.52c-1.18.3-2.52.64-5.05.64-1.04 0-1.88-.84-1.88-1.88s.84-1.88 1.88-1.88c2.06 0 3.02-.24 4.13-.52 1.18-.3 2.52-.64 5.05-.64s3.87.34 5.05.64c1.11.28 2.07.52 4.13.52s3.02-.24 4.13-.52c1.18-.3 2.52-.64 5.05-.64s3.87.34 5.05.64c1.11.28 2.07.52 4.13.52 1.04 0 1.88.84 1.88 1.88s-.84 1.88-1.88 1.88zm7.7-12.74H5.94c-1.04 0-1.88-.84-1.88-1.88S4.9 0 5.94 0h52.13c1.04 0 1.88.84 1.88 1.88s-.85 1.89-1.89 1.89z"></path><path d="M58.06 64H5.94c-1.04 0-1.88-.84-1.88-1.88s.84-1.88 1.88-1.88h52.13c1.04 0 1.88.84 1.88 1.88S59.1 64 58.06 64zm-7.33-6.85c-.08 0-.17-.01-.25-.02-4.06-.54-9.77-2.05-13.9-6.17-5.61-5.62-6.39-14.21-6.46-17.64-.03-.84 0-1.36 0-1.42.06-.99.88-1.77 1.88-1.77h.22a1.878 1.878 0 0 1 1.65 2.78c0 .1 0 .2.01.31.06 3 .71 10.43 5.36 15.08 3.38 3.37 8.25 4.64 11.74 5.1 1.03.14 1.75 1.08 1.62 2.12-.13.95-.94 1.63-1.87 1.63z"></path><path d="M13.27 57.15c-.93 0-1.74-.69-1.86-1.63a1.89 1.89 0 0 1 1.62-2.12c3.48-.47 8.34-1.73 11.72-5.1 4.66-4.66 5.31-12.08 5.37-15.06 0-.12.01-.23.01-.34a1.93 1.93 0 0 1-.23-.89c0-1.04.84-1.88 1.88-1.88H32c1 0 1.82.77 1.88 1.77 0 .06.03.59 0 1.45-.07 3.4-.85 11.99-6.47 17.61-4.12 4.12-9.82 5.63-13.88 6.17-.09.02-.17.02-.26.02z"></path></svg>