<svg xmlns="http://www.w3.org/2000/svg" enable-background="new 0 0 96 96" viewBox="0 0 96 96" id="power-management"><polygon points="43.369 71.578 50.164 71.578 51.28 68.768 42.252 68.768"></polygon><path d="M39.7065,34.7325c0,0,0.0196,0,0.0489-0.0294c0.0098,0,0.0294-0.0098,0.0392-0.0196c0.0097,0,0.0195-0.0098,0.0195-0.0098
		c0.0098,0,0.0196,0,0.0196,0s0-0.0098,0.0098-0.0098h0.0098c0.0195-0.0196,0.0293-0.0294,0.0391-0.0294
		c0.0098-0.0098,0.0098-0.0098,0.0098-0.0098c0.656-0.3622,3.1725-1.7527,11.6227-6.4428c0.8225-0.6562,1.0183-1.7822,0.5287-2.6635
		c-0.5581-1.0184-1.831-1.4001-2.8591-0.8321L37.6698,31.041c-1.0085,0.558-1.3806,1.8505-0.8225,2.8689
		C37.3859,34.8891,38.7175,35.2809,39.7065,34.7325z"></path><rect width="15.902" height="3.692" x="38.816" y="63.118"></rect><path d="M58.7611 28.7791c-.5679-1.0086-1.8408-1.3805-2.8592-.8128 0 .0098-18.7119 10.4969-18.8098 10.5456-1.0086.568-1.3709 1.8606-.8029 2.8691.5483.9792 1.88 1.3609 2.869.8125.0979-.0586 18.9665-10.6924 19.0643-10.7316C59.0646 30.806 59.2604 29.6703 58.7611 28.7791zM59.3714 50.0668v6.8542c0 2.3305-1.9094 4.2399-4.2398 4.2399H38.4075c-2.3304 0-4.2398-1.9093-4.2398-4.2399v-6.8542H59.3714zM46.2669 40.5879c0 0-.0098.0098-.0392.0294l-.0195.0098c-.0392.0196-.0686.0292-.0784.0392-.0196.0196-.0293.0196-.0293.0196-.0294.0096-.0392.0194-.0392.0194v7.4026h4.2202v-4.9644l10.5065-6.0806c1.0085-.5874 1.3512-1.8701.7637-2.8787-.5287-.9106-1.7821-1.3122-2.634-.8324C49.6646 38.6492 46.9523 40.1963 46.2669 40.5879z"></path><path d="M95,56.4896V39.5107L82.7115,36.534c-0.5581-1.6939-1.2533-3.3585-2.066-4.9642l6.5996-10.81L75.2404,8.7552l-10.81,6.5996
		c-1.596-0.8128-3.2606-1.508-4.9644-2.0563L56.4894,1H39.5106L36.534,13.2984c-1.6939,0.5484-3.3585,1.2436-4.9644,2.0563
		l-10.81-6.5996L8.7648,20.7598l6.5898,10.81c-0.8127,1.5959-1.4982,3.2605-2.0562,4.9642L1,39.5107v16.9788l12.2984,2.9767
		c0.5581,1.7135,1.2533,3.3683,2.0562,4.9544L8.7648,75.2405l11.9948,11.985l10.81-6.58c1.6058,0.8128,3.2704,1.508,4.9644,2.0661
		L39.5106,95h16.9788l2.9766-12.2884c1.7037-0.5582,3.3683-1.2534,4.9644-2.0661l10.81,6.58l12.0046-11.985l-6.5996-10.8198
		c0.8127-1.5861,1.5079-3.2507,2.066-4.9544L95,56.4896z M17.0094,48c0-17.0864,13.9042-30.9905,30.9906-30.9905
		c17.0963,0,31.0005,13.9041,31.0005,30.9905c0,17.0965-13.9042,31.0006-31.0005,31.0006
		C30.9136,79.0006,17.0094,65.0965,17.0094,48z"></path></svg>