<?xml version="1.0" encoding="utf-8"?>
<svg width="58.347412px" height="55.652344px" viewBox="0 0 58.347412 55.652344" version="1.1" xmlns:xlink="http://www.w3.org/1999/xlink" xmlns="http://www.w3.org/2000/svg">
  <path d="M29.1737 8.32252C18.4022 8.32252 9.6701 17.0546 9.6701 27.8262C9.6701 38.5977 18.4022 47.3298 29.1737 47.3298C39.9453 47.3298 48.6774 38.5977 48.6774 27.8262C48.6669 17.0599 39.9415 8.33389 29.1745 8.32252L29.1737 8.32252ZM42.4057 25.5838L37.0101 30.7108L38.178 38.0568C38.2841 38.7171 38.0027 39.3797 37.4539 39.7619C37.1634 39.9769 36.8109 40.0917 36.4495 40.0889C36.1563 40.0886 35.8676 40.0164 35.6087 39.8787L29.0685 36.3283L22.4466 39.7152C21.8517 40.0149 21.1384 39.9527 20.6043 39.5546C20.0701 39.1565 19.8068 38.4907 19.924 37.8349L21.2788 30.524L16.0116 25.2568C15.5387 24.7861 15.3742 24.0876 15.5875 23.4553C15.8007 22.8231 16.3546 22.3669 17.016 22.2787L24.397 21.3094L27.7722 14.6758C28.0904 14.0993 28.6905 13.7348 29.3488 13.7181C30.0151 13.7302 30.6189 14.1132 30.9138 14.7108L34.1138 21.4262L41.4715 22.594C42.1292 22.6962 42.6722 23.1623 42.8729 23.797C43.064 24.4331 42.8837 25.1226 42.4058 25.5838L42.4057 25.5838ZM55.9533 31.3765C57.1328 30.1503 58.3474 28.8773 58.3474 27.8262C58.3474 26.7751 57.1328 25.5021 55.9533 24.2758C54.6546 23.125 53.6325 21.6958 52.9635 20.0948C52.5465 18.3542 52.5266 16.542 52.9051 14.7926C53.127 13.1459 53.3489 11.4525 52.7766 10.67C52.2043 9.8875 50.4992 9.57217 48.8642 9.26852C47.0954 9.08655 45.3886 8.51629 43.8657 7.59845C42.5375 6.44157 41.4808 5.00602 40.7708 3.39407C39.9766 1.91086 39.1591 0.380938 38.1898 0.065609C37.3139 -0.214682 35.7839 0.509405 34.3124 1.22181C32.7382 2.12692 30.9835 2.67325 29.1737 2.82181C27.3639 2.67325 25.6093 2.12691 24.035 1.22181C22.5635 0.509404 21.0336 -0.226362 20.1577 0.065608C19.1883 0.380938 18.3708 1.91086 17.5766 3.39407C16.8667 5.00602 15.8099 6.44157 14.4818 7.59845C12.9588 8.51629 11.252 9.08656 9.48321 9.26852C7.84818 9.57217 6.14307 9.87582 5.57081 10.67C4.99854 11.4641 5.22044 13.1459 5.44234 14.7926C5.82087 16.542 5.80091 18.3542 5.38394 20.0948C4.71488 21.6958 3.69286 23.125 2.39417 24.2758C1.2146 25.5021 0 26.7751 0 27.8262C0 28.8773 1.2146 30.1503 2.39416 31.3765C3.69286 32.5273 4.71488 33.9566 5.38394 35.5576C5.80091 37.2982 5.82087 39.1104 5.44233 40.8598C5.22043 42.5065 4.99854 44.1999 5.5708 44.9824C6.14306 45.7649 7.84817 46.0802 9.4832 46.3838C11.252 46.5658 12.9588 47.1361 14.4817 48.0539C15.8099 49.2108 16.8666 50.6463 17.5766 52.2583C18.3708 53.7415 19.1883 55.2714 20.1577 55.5868C21.0336 55.8671 22.5635 55.143 24.035 54.4305C25.6093 53.5254 27.3639 52.9791 29.1737 52.8306C30.9835 52.9791 32.7382 53.5254 34.3124 54.4305C35.7839 55.143 37.3138 55.8787 38.1898 55.5868C39.1591 55.2714 39.9766 53.7415 40.7708 52.2583C41.4808 50.6463 42.5375 49.2108 43.8657 48.0539C45.3886 47.1361 47.0954 46.5658 48.8642 46.3838C50.4992 46.0802 52.2043 45.7765 52.7766 44.9824C53.3489 44.1882 53.127 42.5065 52.9051 40.8598C52.5265 39.1104 52.5465 37.2982 52.9635 35.5576C53.6325 33.9566 54.6545 32.5273 55.9532 31.3766L55.9533 31.3765ZM29.1737 50.8334C16.4672 50.8334 6.16645 40.5327 6.16645 27.8262C6.16646 15.1196 16.4672 4.81887 29.1737 4.81887C41.8803 4.81887 52.181 15.1196 52.181 27.8262C52.164 40.5263 41.8729 50.817 29.1733 50.8334L29.1737 50.8334ZM32.6657 24.743L37.4189 25.4904L33.927 28.8072C33.5102 29.209 33.3143 29.7881 33.4014 30.3605L34.1605 35.1021L29.9328 32.813C29.6739 32.6753 29.3852 32.6031 29.0919 32.6028C28.8162 32.602 28.5442 32.666 28.2978 32.7897L24.0116 34.9736L24.8876 30.2437C24.9893 29.6768 24.806 29.096 24.397 28.6904L20.9985 25.2919L25.7635 24.6612C26.3354 24.583 26.8328 24.2296 27.0949 23.7152L29.2788 19.4291L31.3576 23.7736C31.6088 24.2912 32.0973 24.6532 32.6657 24.743L32.6657 24.743Z" id="Forme" fill="#FFFFFF" fill-rule="evenodd" stroke="none" />
</svg>